<?xml version="1.0" standalone="no"?><!DOCTYPE svg PUBLIC "-//W3C//DTD SVG 1.1//EN" "http://www.w3.org/Graphics/SVG/1.1/DTD/svg11.dtd"><svg t="1593507354087" class="icon" viewBox="0 0 1024 1024" version="1.1" xmlns="http://www.w3.org/2000/svg" p-id="2253" xmlns:xlink="http://www.w3.org/1999/xlink" width="16" height="16"><defs><style type="text/css"></style></defs><path d="M163.84 230.4h701.44v568.32H163.84z" fill="#E1EFFF" p-id="2254"></path><path d="M864 834.56H160c-17.67424 0-32-14.21312-32-31.744V231.424c0-17.53088 14.32576-31.744 32-31.744h704c17.67424 0 32 14.21312 32 31.744v571.392c0 17.53088-14.32576 31.744-32 31.744zM192 771.072h640V263.168h-640v507.904z" fill="#619BDD" p-id="2255"></path><path d="M312.32 133.12h31.7184v95.36H312.32V133.12z m126.8736 0h31.72352v95.36H439.1936V133.12z m126.87872 0h31.7184v95.36h-31.7184V133.12z m126.8736 0h31.72352v95.36h-31.72352V133.12zM312.32 800.64h31.7184V896H312.32v-95.36z m126.8736 0h31.72352V896H439.1936v-95.36z m126.87872 0h31.7184V896h-31.7184v-95.36z m126.8736 0h31.72352V896h-31.72352v-95.36z m174.45888-111.2576H962.56v31.7952h-95.1552v-31.7952z m0-127.14496H962.56v31.79008h-95.1552v-31.79008z m0-127.14496H962.56v31.78496h-95.1552V435.0976z m0-127.14496H962.56v31.78496h-95.1552v-31.78496zM66.56 685.68576h97.28V716.8H66.56v-31.11424z m0-124.45696h97.28v31.11424H66.56v-31.11424z m0-124.45184h97.28v31.11424H66.56v-31.11424zM66.56 312.32h97.28v31.11424H66.56V312.32zM359.4496 523.9296l49.80224 15.4112c-3.33824 14.32064-8.63744 26.2144-15.7952 35.80928a68.41856 68.41856 0 0 1-26.7776 21.6832c-10.66496 4.864-24.24832 7.32672-40.71936 7.32672-19.968 0-36.31616-2.95936-48.96768-8.90368-12.68224-5.9136-23.6032-16.3584-32.78336-31.3088-9.18528-14.9504-13.80864-34.13504-13.80864-57.46176 0-31.11424 8.0896-55.02976 24.27392-71.75168C270.85824 418.01216 293.75488 409.6 323.328 409.6c23.18336 0 41.35936 4.79744 54.62016 14.3872 13.2608 9.59488 23.1168 24.31488 29.5424 44.16l-50.16064 11.3664a45.056 45.056 0 0 0-5.51936-12.58496 33.17248 33.17248 0 0 0-11.65824-10.28096 32.86528 32.86528 0 0 0-15.4112-3.584c-12.8768 0-22.7328 5.28896-29.60896 15.90272-5.1712 7.85408-7.76704 20.20352-7.76704 37.02784 0 20.85888 3.11296 35.15392 9.27744 42.87488 6.16448 7.72096 14.8992 11.5968 26.10688 11.5968 10.88512 0 19.10784-3.1232 24.65792-9.3696 5.5552-6.23616 9.53856-15.27296 12.04224-27.16672z m77.1584-111.14496h94.4384c20.5824 0 35.93216 4.99712 46.208 15.01696 10.2144 10.01984 15.38048 24.2432 15.38048 42.74176 0 18.99008-5.58592 33.8432-16.72704 44.5184s-28.16 16.03072-51.1232 16.03072H493.6704v69.81632H436.61312V412.78464z m57.0624 80.2304h13.93664c10.95168 0 18.65728-1.93536 23.0912-5.84704a19.01056 19.01056 0 0 0 6.64576-14.9504c0-5.9136-1.93024-10.9056-5.7856-15.01184-3.85024-4.10624-11.07456-6.17472-21.70368-6.17472h-16.1792v41.984z m248.34048-80.2304H798.72v112.09728c0 11.1104-1.69984 21.62176-5.0688 31.47776a68.31104 68.31104 0 0 1-15.93344 25.91744 63.19104 63.19104 0 0 1-22.76352 15.60576c-11.04896 4.1728-24.30976 6.2464-39.75168 6.2464a253.03552 253.03552 0 0 1-29.2864-1.94048c-10.53184-1.28-19.39456-3.80928-26.49088-7.62368-7.09632-3.80928-13.6448-9.19552-19.49184-16.19456a60.48768 60.48768 0 0 1-12.10368-21.6832 116.50048 116.50048 0 0 1-5.26848-31.83616V412.75392h56.73984v114.75968c0 10.25024 2.7648 18.26304 8.3456 24.04864 5.56032 5.74976 13.2608 8.63744 23.15776 8.63744 9.78944 0 17.46432-2.82112 23.01952-8.50944 5.58592-5.6832 8.3456-13.73184 8.3456-24.17664V412.78464h-0.1536z" fill="#619BDD" p-id="2256"></path></svg>