<?xml version="1.0" standalone="no"?><!DOCTYPE svg PUBLIC "-//W3C//DTD SVG 1.1//EN" "http://www.w3.org/Graphics/SVG/1.1/DTD/svg11.dtd"><svg t="1593507487914" class="icon" viewBox="0 0 1280 1024" version="1.1" xmlns="http://www.w3.org/2000/svg" p-id="4717" xmlns:xlink="http://www.w3.org/1999/xlink" width="20" height="16"><defs><style type="text/css"></style></defs><path d="M1280 261.88V192c0-35.34-28.66-64-64-64H64C28.66 128 0 156.66 0 192v69.88c37.2 13.22 64 48.38 64 90.12s-26.8 76.9-64 90.12V640h1280v-197.88c-37.2-13.22-64-48.38-64-90.12s26.8-76.9 64-90.12zM448 512h-128V256h128v256z m256 0h-128V256h128v256z m256 0h-128V256h128v256zM0 896h128v-53.34c0-17.68 14.32-32 32-32s32 14.32 32 32V896h256v-53.34c0-17.68 14.32-32 32-32s32 14.32 32 32V896h256v-53.34c0-17.68 14.32-32 32-32s32 14.32 32 32V896h256v-53.34c0-17.68 14.32-32 32-32s32 14.32 32 32V896h128v-192H0v192z" fill="" p-id="4718"></path></svg>