<?xml version="1.0" standalone="no"?><!DOCTYPE svg PUBLIC "-//W3C//DTD SVG 1.1//EN" "http://www.w3.org/Graphics/SVG/1.1/DTD/svg11.dtd"><svg t="1607076406664" class="icon" viewBox="0 0 1024 1024" version="1.1" xmlns="http://www.w3.org/2000/svg" p-id="9015" xmlns:xlink="http://www.w3.org/1999/xlink" width="16" height="16"><defs><style type="text/css"></style></defs><path d="M892 244.992h-136V161.536c0-36.704-31.456-66.528-70.144-66.528H338.112c-38.656 0-70.144 29.856-70.144 66.528v83.456h-136a8 8 0 0 0-8 8v56c0 4.416 3.584 8 8 8h35.776l27.712 547.392c1.856 36.256 32.192 64.608 69.088 64.608H759.36c36.896 0 67.264-28.384 69.088-64.608l27.712-547.392h35.776a8 8 0 0 0 8-8v-56a8 8 0 0 0-8-8z m-552-77.984h344v78.016h-344z m416.768 689.984H267.2L239.84 316.992h544.256zM402.016 412.992h48q8 0 8 8v286.016q0 8-8 8h-48q-8 0-8-8v-286.016q0-8 8-8z m170.976 0h48q8 0 8 8v286.016q0 8-8 8h-48q-8 0-8-8v-286.016q0-8 8-8z" p-id="9016"></path></svg>